<svg xmlns="http://www.w3.org/2000/svg">
    <symbol viewBox="0 0 30 30" id="vk">
        <path d="M15 0C6.71779 0 0 6.71779 0 15C0 23.2822 6.71779 30 15 30C23.2822 30 30 23.2822 30 15C30 6.71779 23.2822 0 15 0ZM22.6074 16.6258C23.3129 17.3006 24.0491 17.9448 24.6626 18.7117C24.9386 19.0491 25.2147 19.3865 25.3988 19.7853C25.6748 20.3374 25.4294 20.9509 24.9386 20.9816H21.8712C21.0736 21.0429 20.4601 20.7362 19.908 20.184C19.4785 19.7546 19.0798 19.2945 18.681 18.8344C18.5276 18.6503 18.3436 18.4663 18.1288 18.3436C17.6994 18.0675 17.3313 18.1595 17.1166 18.589C16.8712 19.0491 16.8098 19.5399 16.7791 20.0307C16.7485 20.7669 16.5337 20.9509 15.7975 20.9816C14.2331 21.0429 12.7607 20.8282 11.411 20.0307C10.2147 19.3252 9.2638 18.3742 8.46626 17.2699C6.87117 15.1227 5.67485 12.7607 4.57055 10.3374C4.32515 9.78528 4.5092 9.5092 5.1227 9.47853C6.13497 9.44785 7.11656 9.44785 8.12883 9.47853C8.52761 9.47853 8.80368 9.72393 8.95705 10.092C9.5092 11.411 10.1534 12.6994 10.9816 13.865C11.1963 14.1718 11.4417 14.4785 11.7485 14.7239C12.1166 14.9693 12.362 14.8773 12.546 14.4785C12.638 14.2331 12.6994 13.9571 12.7301 13.681C12.8221 12.7607 12.8221 11.8405 12.6687 10.9202C12.5767 10.3067 12.2699 9.93865 11.6871 9.81595C11.3804 9.7546 11.4417 9.66258 11.5644 9.47853C11.8098 9.20245 12.0552 9.0184 12.5153 9.0184H15.9816C16.5337 9.1411 16.6564 9.35583 16.7178 9.90797V13.773C16.7178 13.9877 16.8098 14.6319 17.2086 14.7546C17.5153 14.8466 17.7301 14.6012 17.9141 14.4172C18.7423 13.5276 19.3252 12.4847 19.8773 11.411C20.1227 10.9202 20.3067 10.4294 20.5215 9.93865C20.6748 9.57055 20.8896 9.3865 21.319 9.3865H24.6626C24.7546 9.3865 24.8466 9.3865 24.9693 9.41718C25.5215 9.5092 25.6748 9.7546 25.5215 10.3067C25.2454 11.1656 24.7239 11.9018 24.2025 12.6074C23.6503 13.3742 23.0368 14.1104 22.4847 14.908C21.9325 15.6442 21.9632 16.0123 22.6074 16.6258Z" />
    </symbol>

    <symbol viewBox="0 0 30 30" id="facebook">
        <path d="M30 15C30 6.71484 23.2852 0 15 0C6.71484 0 0 6.71484 0 15C0 23.2852 6.71484 30 15 30C15.0879 30 15.1758 30 15.2637 29.9941V18.3223H12.041V14.5664H15.2637V11.8008C15.2637 8.5957 17.2207 6.84961 20.0801 6.84961C21.4512 6.84961 22.6289 6.94922 22.9688 6.99609V10.3477H21C19.4473 10.3477 19.1426 11.0859 19.1426 12.1699V14.5605H22.8633L22.377 18.3164H19.1426V29.4199C25.4121 27.6211 30 21.8496 30 15Z"/>
    </symbol>

     <symbol viewBox="0 0 30 30" id="instagram">
        <g clip-path="url(#clip0_39874_9)">
        <path d="M17.8711 15C17.8711 16.5879 16.5879 17.8711 15 17.8711C13.4121 17.8711 12.1289 16.5879 12.1289 15C12.1289 13.4121 13.4121 12.1289 15 12.1289C16.5879 12.1289 17.8711 13.4121 17.8711 15Z" />
        <path d="M21.7148 9.91992C21.5742 9.54492 21.3574 9.20508 21.0703 8.92969C20.7949 8.64258 20.4551 8.42578 20.0801 8.28516C19.7754 8.16797 19.3184 8.02734 18.4805 7.98633C17.5723 7.94531 17.2969 7.93359 15 7.93359C12.6973 7.93359 12.4277 7.93945 11.5195 7.98633C10.6816 8.02734 10.2246 8.16797 9.91992 8.28516C9.54492 8.42578 9.20508 8.64258 8.92969 8.92969C8.64258 9.20508 8.42578 9.54492 8.28516 9.91992C8.16797 10.2246 8.02734 10.6816 7.98633 11.5195C7.94531 12.4277 7.93359 12.6973 7.93359 15C7.93359 17.2969 7.94531 17.5723 7.98633 18.4805C8.02734 19.3184 8.16211 19.7754 8.28516 20.0801C8.42578 20.4551 8.64258 20.7949 8.92969 21.0703C9.20508 21.3574 9.54492 21.5742 9.91992 21.7148C10.2246 21.832 10.6816 21.9727 11.5195 22.0137C12.4277 22.0547 12.6973 22.0664 15 22.0664C17.3027 22.0664 17.5723 22.0605 18.4805 22.0137C19.3184 21.9727 19.7754 21.8379 20.0801 21.7148C20.8301 21.4277 21.4277 20.8301 21.7148 20.0801C21.832 19.7754 21.9727 19.3184 22.0137 18.4805C22.0547 17.5723 22.0664 17.2969 22.0664 15C22.0664 12.6973 22.0605 12.4277 22.0137 11.5195C21.9727 10.6816 21.832 10.2246 21.7148 9.91992ZM15 19.4238C12.5566 19.4238 10.5762 17.4434 10.5762 15C10.5762 12.5566 12.5566 10.5762 15 10.5762C17.4434 10.5762 19.4238 12.5566 19.4238 15C19.4238 17.4434 17.4434 19.4238 15 19.4238ZM19.5996 11.4375C19.0313 11.4375 18.5684 10.9746 18.5684 10.4063C18.5684 9.83789 19.0313 9.375 19.5996 9.375C20.168 9.375 20.6309 9.83789 20.6309 10.4063C20.6309 10.9746 20.168 11.4375 19.5996 11.4375Z" />
        <path d="M15 0C6.71484 0 0 6.71484 0 15C0 23.2852 6.71484 30 15 30C23.2852 30 30 23.2852 30 15C30 6.71484 23.2852 0 15 0ZM23.5605 18.5508C23.5195 19.4648 23.373 20.0918 23.1621 20.6426C22.7168 21.7969 21.8027 22.7168 20.6426 23.1621C20.0977 23.373 19.4707 23.5195 18.5508 23.5605C17.6309 23.6016 17.3379 23.6133 15 23.6133C12.6621 23.6133 12.3691 23.6016 11.4492 23.5605C10.5352 23.5195 9.9082 23.373 9.35742 23.1621C8.7832 22.9453 8.26172 22.6055 7.83398 22.166C7.39453 21.7383 7.05469 21.2168 6.83789 20.6426C6.62695 20.0977 6.48047 19.4707 6.43945 18.5508C6.39844 17.6309 6.38672 17.3379 6.38672 15C6.38672 12.6621 6.39844 12.3691 6.43945 11.4492C6.48047 10.5352 6.62695 9.9082 6.83789 9.35742C7.05469 8.7832 7.39453 8.26172 7.83398 7.83398C8.26172 7.39453 8.7832 7.05469 9.35742 6.83789C9.9082 6.62695 10.5293 6.48047 11.4492 6.43945C12.3691 6.39844 12.6621 6.38672 15 6.38672C17.3379 6.38672 17.6309 6.39844 18.5508 6.43945C19.4648 6.48047 20.0918 6.62695 20.6426 6.83789C21.2168 7.05469 21.7383 7.39453 22.166 7.83398C22.6055 8.26172 22.9453 8.7832 23.1621 9.35742C23.373 9.9082 23.5195 10.5293 23.5605 11.4492C23.6016 12.3691 23.6133 12.6621 23.6133 15C23.6133 17.3379 23.6016 17.6309 23.5605 18.5508Z" />
        </g>
        <defs>
        <clipPath id="clip0_39874_9">
        <rect width="30" height="30" />
        </clipPath>
        </defs>
    </symbol>

    <symbol viewBox="0 0 30 30" id="telegram">
        <path d="M15 30C23.2852 30 30 23.2852 30 15C30 6.71484 23.2852 0 15 0C6.71484 0 0 6.71484 0 15C0 23.2852 6.71484 30 15 30ZM6.86133 14.6777L21.3281 9.09961C22.002 8.85938 22.5879 9.26367 22.3652 10.2773L19.9043 21.8789C19.7227 22.6992 19.2305 22.9043 18.5508 22.5117L14.8008 19.7461L12.9902 21.4863C12.791 21.6855 12.6211 21.8555 12.2344 21.8555L12.498 18.041L19.4531 11.7656C19.7578 11.502 19.3828 11.3496 18.9844 11.6133L10.3945 17.0215L6.69141 15.8672C5.88867 15.6094 5.87109 15.0645 6.86133 14.6777Z"/>
    </symbol>

    <symbol viewBox="0 0 14 15" id="phone">
        <path d="M13.7455 13.0923C13.4909 13.5935 12.9818 13.8441 12.4727 14.0947C11.8364 14.4706 11.3273 14.5959 10.6909 14.5959C9.8 14.5959 8.90909 14.22 8.14545 13.9694C7.50909 13.7188 7 13.4682 6.36364 13.2176C4.58182 12.09 2.54545 10.0853 1.52727 8.45643C1.14545 7.82996 0.890909 7.32878 0.636364 6.70231C0.381818 5.82525 0 5.07349 0 4.07113C0 3.44466 0.127273 2.81819 0.509091 2.19172C0.763636 1.69054 1.01818 1.18936 1.52727 0.938771C1.90909 0.938771 2.54545 0.813477 2.92727 0.813477C3.05455 0.813477 3.05455 0.813477 3.18182 0.813477C3.43636 0.938771 3.56364 1.31465 3.69091 1.56524C3.94545 2.19172 4.32727 2.69289 4.58182 3.31936C4.83636 3.56995 5.09091 3.82054 5.09091 4.07113C5.09091 4.6976 3.30909 5.57466 3.30909 6.07584C3.30909 6.32643 3.56364 6.70231 3.69091 6.9529C4.70909 8.70702 5.98182 9.95997 7.76364 10.9623C8.01818 11.0876 8.4 11.3382 8.65455 11.3382C9.16364 11.3382 10.0545 9.58408 10.6909 9.58408C10.9455 9.58408 11.2 9.83467 11.4545 10.0853C11.9636 10.4611 12.6 10.7117 13.1091 11.0876C13.3636 11.2129 13.7455 11.3382 13.8727 11.5888C13.8727 11.7141 13.8727 11.7141 13.8727 11.8394C14 12.09 13.8727 12.7164 13.7455 13.0923Z" />
    </symbol>

    <symbol viewBox="0 0 41 41" id="ear">
        <g clip-path="url(#clip0_39932_167)">
        <g clip-path="url(#clip1_39932_167)">
        <path d="M12.5923 0.788452C6.0838 0.788452 0.788452 6.52513 0.788452 13.6081C0.813499 15.2504 1.26379 16.8582 2.0954 18.2746C2.48837 18.9449 2.82485 19.6468 3.10135 20.373C3.28473 20.9068 3.10872 21.498 2.6633 21.8446C1.88835 22.4641 1.43928 23.404 1.44422 24.3962C1.44111 25.4864 1.9801 26.5069 2.88233 27.1189C3.20669 27.3393 3.40398 27.7033 3.41153 28.0954V33.577C3.41153 37.1929 6.05888 40.1347 9.31347 40.1347C12.5681 40.1347 15.2154 37.1929 15.2154 33.577C15.2054 30.8762 16.3799 28.3068 18.4287 26.5471C22.2694 23.3425 24.4615 18.5777 24.3962 13.576C24.3962 6.52513 19.1008 0.788452 12.5923 0.788452ZM17.5762 25.551C15.2357 27.5594 13.8934 30.4929 13.9039 33.577C13.9039 36.4696 11.8441 38.8231 9.31347 38.8231C6.78285 38.8231 4.72308 36.4696 4.72308 33.577V28.0954C4.71245 27.2832 4.31391 26.5251 3.65089 26.0559C3.09063 25.69 2.75372 25.0654 2.75576 24.3962C2.75126 23.793 3.02755 23.222 3.50334 22.8512C4.37644 22.1517 4.70981 20.9754 4.33355 19.9219C4.03153 19.1275 3.66367 18.3598 3.23382 17.6267C2.51115 16.3975 2.12043 15.0017 2.09999 13.576C2.09999 7.24845 6.80711 2.09999 12.5923 2.09999C18.3775 2.09999 23.0846 7.24845 23.0846 13.576C23.1447 18.1933 21.1213 22.592 17.5762 25.551V25.551Z" />
        <path d="M12.5923 4.06729C8.9377 4.06729 5.82148 6.6589 4.61158 10.2814C4.60305 10.303 4.59715 10.324 4.5906 10.3469C4.24485 11.3989 4.06778 12.4989 4.06598 13.6061C4.06598 14.3931 4.06598 16.7997 5.56966 18.3034C5.82697 18.5519 6.23598 18.5484 6.48893 18.2954C6.74189 18.0425 6.74544 17.6335 6.49692 17.3762C5.95817 16.7773 5.61221 16.03 5.50408 15.2318C5.60966 15.2252 5.71393 15.2167 5.82344 15.2167C8.83343 15.2154 11.2808 17.9696 11.2808 21.3534C11.2808 21.6675 11.2657 21.9626 11.2414 22.2538C10.9149 22.6024 10.5676 22.9309 10.2014 23.2374C8.29139 24.8016 7.2328 27.1762 7.34614 29.6423C7.34614 30.0045 7.63974 30.2981 8.00191 30.2981C8.36409 30.2981 8.65768 30.0045 8.65768 29.6423C8.54487 27.563 9.43359 25.5552 11.0486 24.2408C13.3623 22.465 14.6711 19.6774 14.5596 16.763C14.5596 12.6579 11.4709 9.31345 7.67403 9.31345C7.23785 9.3146 6.80296 9.36075 6.37626 9.45117C7.51611 7.0315 9.91876 5.45745 12.5923 5.37883C16.5696 5.37883 19.8058 9.06885 19.8058 13.6048C19.8573 17.1782 18.3076 20.5872 15.5813 22.8977C15.4908 22.9758 15.3905 23.0597 15.2816 23.1509C13.9766 24.2355 11.2624 26.4953 10.6289 32.1933C10.5906 32.5523 10.8498 32.8748 11.2086 32.9146C11.2325 32.9181 11.2566 32.9203 11.2808 32.9212C11.6148 32.9209 11.8952 32.6696 11.9319 32.3376C12.5071 27.1635 14.8567 25.2087 16.1197 24.1588C16.2358 24.0617 16.3427 23.9725 16.4384 23.8899C19.4567 21.3331 21.1731 17.5601 21.1173 13.6048C21.1173 8.34554 17.2929 4.06729 12.5923 4.06729V4.06729ZM7.67403 10.625C10.7476 10.625 13.2481 13.3792 13.2481 16.763C13.2778 18.0038 13.0314 19.2358 12.5267 20.3697C12.0867 16.7237 9.25247 13.9038 5.82476 13.9038C5.67327 13.9038 5.52769 13.915 5.38145 13.9255C5.38145 13.7996 5.38145 13.6901 5.38145 13.6048C5.38169 12.7278 5.50712 11.8554 5.75393 11.0139C6.36201 10.7587 7.0146 10.6266 7.67403 10.625V10.625Z" />
        <path d="M33.577 15.8712C33.6273 13.8043 34.5038 11.8439 36.0105 10.4283C36.1936 10.2657 36.2708 10.0148 36.2109 9.77745C36.151 9.54012 35.9639 9.35591 35.7257 9.29971C35.4874 9.2435 35.2377 9.32466 35.078 9.51019C33.3267 11.1684 32.3135 13.4598 32.2654 15.8712C32.3135 18.2825 33.3267 20.5739 35.078 22.2321C35.2377 22.4177 35.4874 22.4988 35.7257 22.4426C35.9639 22.3864 36.151 22.2022 36.2109 21.9649C36.2708 21.7275 36.1936 21.4766 36.0105 21.3141C34.5038 19.8984 33.6273 17.938 33.577 15.8712V15.8712Z" />
        <path d="M37.9477 12.1025C37.8178 11.9868 37.6472 11.9275 37.4736 11.9375C37.2999 11.9476 37.1374 12.0263 37.0217 12.1562C35.0519 14.2412 35.0519 17.5012 37.0217 19.5861C37.1775 19.7611 37.4149 19.8397 37.6443 19.7923C37.8738 19.7449 38.0605 19.5786 38.1342 19.3562C38.2078 19.1338 38.1572 18.8889 38.0014 18.7139C36.474 17.1265 36.474 14.6158 38.0014 13.0284C38.1171 12.8985 38.1764 12.7279 38.1664 12.5543C38.1563 12.3806 38.0776 12.2181 37.9477 12.1025V12.1025Z" />
        <path d="M39.9661 14.1209C39.7238 13.8519 39.3093 13.8302 39.0402 14.0724C38.489 14.5066 38.1674 15.1695 38.1674 15.8712C38.1674 16.5728 38.489 17.2358 39.0402 17.67C39.2134 17.8322 39.4608 17.8883 39.687 17.8164C39.9133 17.7445 40.083 17.556 40.1308 17.3235C40.1786 17.091 40.0971 16.8508 39.9176 16.6955C39.6633 16.4935 39.5045 16.1949 39.4789 15.8712C39.5045 15.5475 39.6633 15.2489 39.9176 15.0469C40.1866 14.8046 40.2083 14.3901 39.9661 14.1209V14.1209Z" />
        <path d="M30.2981 15.8712C30.2981 12.9858 31.5906 10.1974 34.036 7.81567C34.2037 7.65167 34.2713 7.41064 34.2131 7.18337C34.1549 6.95609 33.98 6.77711 33.7541 6.71383C33.5282 6.65056 33.2857 6.71261 33.1179 6.87661C30.4161 9.51018 28.9866 12.6205 28.9866 15.8712C28.9866 19.1218 30.4161 22.2321 33.1179 24.8657C33.3772 25.1192 33.793 25.1145 34.0465 24.8552C34.3 24.5959 34.2953 24.1802 34.036 23.9267C31.5906 21.5449 30.2981 18.7566 30.2981 15.8712V15.8712Z" />
        <path d="M27.0193 15.8712C27.0193 12.2684 28.542 8.79802 31.4241 5.83787C31.5881 5.66989 31.65 5.42718 31.5866 5.20116C31.5231 4.97514 31.3439 4.80016 31.1164 4.74212C30.8889 4.68409 30.6477 4.75181 30.4837 4.9198C27.3596 8.13307 25.7077 11.9201 25.7077 15.8712C25.7077 19.8222 27.3596 23.6092 30.4837 26.8225C30.7373 27.0822 31.1533 27.0872 31.413 26.8337C31.6727 26.5801 31.6776 26.1641 31.4241 25.9044C28.542 22.9443 27.0193 19.474 27.0193 15.8712V15.8712Z" />
        </g>
        </g>
        <defs>
        <clipPath id="clip0_39932_167">
        <rect width="41" height="41" />
        </clipPath>
        <clipPath id="clip1_39932_167">
        <rect width="39.4231" height="39.3462" transform="translate(0.788452 0.788452)"/>
        </clipPath>
        </defs>
    </symbol>

    <symbol viewBox="0 0 41 41" id="charge">
       <g clip-path="url(#clip0_39932_179)">
        <path d="M27.031 4.73074H13.969C12.527 4.73074 11.3539 5.90383 11.3539 7.34588V36.8079C11.3539 38.2499 12.527 39.423 13.969 39.423H27.031C28.4731 39.423 29.6462 38.2499 29.6462 36.8079V7.34597C29.6462 5.90383 28.4731 4.73074 27.031 4.73074ZM28.3846 36.8079C28.3846 37.5542 27.7772 38.1616 27.031 38.1616H13.969C13.2228 38.1616 12.6154 37.5542 12.6154 36.8079V7.34597C12.6154 6.59977 13.2228 5.99234 13.969 5.99234H27.031C27.7772 5.99234 28.3847 6.59977 28.3847 7.34597V36.8079H28.3846Z" />
        <path d="M23.9693 1.57693H17.0308C16.6825 1.57693 16.4 1.8594 16.4 2.20773V5.36155C16.4 5.70989 16.6825 5.99235 17.0308 5.99235H23.9693C24.3176 5.99235 24.6001 5.70989 24.6001 5.36155V2.20773C24.6 1.8594 24.3176 1.57693 23.9693 1.57693ZM23.3385 4.73075H17.6615V2.83844H23.3385V4.73075Z" />
        <path d="M25.1319 18.8996C25.0161 18.7175 24.8155 18.6075 24.6 18.6075H20.8154V12.9306C20.8154 12.6349 20.6099 12.379 20.3213 12.315C20.0301 12.2512 19.738 12.396 19.613 12.6639L15.1976 22.1255C15.1065 22.3207 15.1215 22.5494 15.2373 22.731C15.3531 22.9132 15.5537 23.0231 15.7692 23.0231H19.5538V28.7C19.5538 28.9957 19.7593 29.2516 20.0479 29.3157C20.0938 29.3259 20.1396 29.3308 20.1849 29.3308C20.4257 29.3308 20.6509 29.1922 20.7562 28.9667L25.1716 19.5052C25.2627 19.3099 25.2477 19.0812 25.1319 18.8996ZM19.5538 21.7615H16.7597L19.5538 15.7738V21.7615ZM20.8154 25.857V19.8692H23.6095L20.8154 25.857Z" />
        </g>
        <defs>
        <clipPath id="clip0_39932_179">
        <rect width="37.8462" height="37.8462" transform="translate(1.57692 1.57693)"/>
        </clipPath>
        </defs>
    </symbol>

    <symbol viewBox="0 0 41 41" id="charge">
       <g clip-path="url(#clip0_39932_179)">
        <path d="M27.031 4.73074H13.969C12.527 4.73074 11.3539 5.90383 11.3539 7.34588V36.8079C11.3539 38.2499 12.527 39.423 13.969 39.423H27.031C28.4731 39.423 29.6462 38.2499 29.6462 36.8079V7.34597C29.6462 5.90383 28.4731 4.73074 27.031 4.73074ZM28.3846 36.8079C28.3846 37.5542 27.7772 38.1616 27.031 38.1616H13.969C13.2228 38.1616 12.6154 37.5542 12.6154 36.8079V7.34597C12.6154 6.59977 13.2228 5.99234 13.969 5.99234H27.031C27.7772 5.99234 28.3847 6.59977 28.3847 7.34597V36.8079H28.3846Z" />
        <path d="M23.9693 1.57693H17.0308C16.6825 1.57693 16.4 1.8594 16.4 2.20773V5.36155C16.4 5.70989 16.6825 5.99235 17.0308 5.99235H23.9693C24.3176 5.99235 24.6001 5.70989 24.6001 5.36155V2.20773C24.6 1.8594 24.3176 1.57693 23.9693 1.57693ZM23.3385 4.73075H17.6615V2.83844H23.3385V4.73075Z" />
        <path d="M25.1319 18.8996C25.0161 18.7175 24.8155 18.6075 24.6 18.6075H20.8154V12.9306C20.8154 12.6349 20.6099 12.379 20.3213 12.315C20.0301 12.2512 19.738 12.396 19.613 12.6639L15.1976 22.1255C15.1065 22.3207 15.1215 22.5494 15.2373 22.731C15.3531 22.9132 15.5537 23.0231 15.7692 23.0231H19.5538V28.7C19.5538 28.9957 19.7593 29.2516 20.0479 29.3157C20.0938 29.3259 20.1396 29.3308 20.1849 29.3308C20.4257 29.3308 20.6509 29.1922 20.7562 28.9667L25.1716 19.5052C25.2627 19.3099 25.2477 19.0812 25.1319 18.8996ZM19.5538 21.7615H16.7597L19.5538 15.7738V21.7615ZM20.8154 25.857V19.8692H23.6095L20.8154 25.857Z" />
        </g>
        <defs>
        <clipPath id="clip0_39932_179">
        <rect width="37.8462" height="37.8462" transform="translate(1.57692 1.57693)"/>
        </clipPath>
        </defs>
    </symbol>

    <symbol viewBox="0 0 41 41" id="plug">
        <g clip-path="url(#clip0_39932_191)">
        <path d="M30.5923 9.77691H28.7V3.46924C28.7 2.39691 27.88 1.57693 26.8077 1.57693C25.7353 1.57693 24.9154 2.39691 24.9154 3.46924V9.77691H16.0846V3.46924C16.0846 2.39691 15.2647 1.57693 14.1923 1.57693C13.12 1.57693 12.3 2.39691 12.3 3.46924V9.77691H10.4077C10.0293 9.77691 9.77697 10.0292 9.77697 10.4077V15.2015C9.77697 18.3553 10.9754 21.383 13.1201 23.7169C15.0124 25.8615 16.0847 28.6369 16.0847 31.4753V33.1153C16.0847 34.8815 17.4724 36.2692 19.2386 36.2692H19.8693V38.7923C19.8693 39.1707 20.1216 39.423 20.5001 39.423C20.8785 39.423 21.1308 39.1707 21.1308 38.7923V36.2692H21.7616C23.5277 36.2692 24.9154 34.8815 24.9154 33.1153V31.5384C24.9154 28.6369 25.9246 25.9246 27.8801 23.78C30.0247 21.4462 31.2232 18.3553 31.2232 15.2016V10.4077C31.2231 10.0293 30.9707 9.77691 30.5923 9.77691ZM26.1769 3.46924C26.1769 3.09078 26.4292 2.8385 26.8077 2.8385C27.1861 2.8385 27.4384 3.09078 27.4384 3.46924V9.77691H26.1769V3.46924ZM13.5615 3.46924C13.5615 3.15383 13.8138 2.8385 14.1923 2.8385C14.5707 2.8385 14.823 3.09078 14.823 3.46924V9.77691H13.5614V3.46924H13.5615ZM29.9615 15.1385C29.9615 18.04 28.9523 20.7524 26.9969 22.897C24.8523 25.2308 23.6539 28.3215 23.6539 31.4754V33.1154C23.6539 34.1878 22.8339 35.0077 21.7616 35.0077H19.2385C18.1662 35.0077 17.3462 34.1878 17.3462 33.1154V31.5385C17.3462 28.3847 16.1478 25.2939 14.0031 22.9601C12.1108 20.8154 11.0385 18.04 11.0385 15.2016V11.0385H12.9308H15.4538H25.5461H28.0692H29.9615V15.1385Z" />
        <path d="M23.0231 17.977H19.4907L22.8338 14.6339C23.0861 14.3816 23.0861 14.0031 22.8338 13.7508C22.5815 13.4984 22.2031 13.4985 21.9507 13.7508L17.5354 18.1661C17.3461 18.3554 17.2831 18.6076 17.4092 18.86C17.4722 19.1123 17.7246 19.2385 17.9769 19.2385H21.5092L18.1661 22.5816C17.9138 22.8338 17.9138 23.2123 18.1661 23.4647C18.2923 23.5908 18.4184 23.6539 18.6076 23.6539C18.7968 23.6539 18.923 23.5908 19.0491 23.4647L23.4645 19.0493C23.6537 18.8601 23.7168 18.6078 23.5907 18.3554C23.5277 18.1031 23.2754 17.977 23.0231 17.977Z" />
        </g>
        <defs>
        <clipPath id="clip0_39932_191">
        <rect width="37.8462" height="37.8462" transform="translate(1.57692 1.57693)"/>
        </clipPath>
        </defs>
    </symbol>
</svg>